<?xml version="1.0" encoding="utf-8"?>
<svg version="1.1" xmlns:xlink="http://www.w3.org/1999/xlink" width="74px" height="361px" xmlns="http://www.w3.org/2000/svg">
  <defs>
    <mask fill="white" id="clip1">
      <path d="M 0 291.483870967742  L 0 0  L 73 76.6451612903226  L 73 360  L 0 291.483870967742  Z " fill-rule="evenodd" />
    </mask>
  </defs>
  <g transform="matrix(1 0 0 1 0 -284 )">
    <path d="M 0 291.483870967742  L 0 0  L 73 76.6451612903226  L 73 360  L 0 291.483870967742  Z " fill-rule="nonzero" fill="#f2f2f2" stroke="none" transform="matrix(1 0 0 1 0 284 )" />
    <path d="M 0 291.483870967742  L 0 0  L 73 76.6451612903226  L 73 360  L 0 291.483870967742  Z " stroke-width="2" stroke="#797979" fill="none" transform="matrix(1 0 0 1 0 284 )" mask="url(#clip1)" />
    <path d="M 73 76.6451612903226  L 0.305786644788097 290.628351154486  M 0.305786644788097 0.855519813255671  L 73 360  " stroke-width="1" stroke="#797979" fill="none" transform="matrix(1 0 0 1 0 284 )" mask="url(#clip1)" />
  </g>
</svg>