<?xml version="1.0" encoding="utf-8"?>
<svg version="1.1" xmlns:xlink="http://www.w3.org/1999/xlink" width="74px" height="301px" xmlns="http://www.w3.org/2000/svg">
  <defs>
    <mask fill="white" id="clip2">
      <path d="M 73 242.903225806452  L 73 0  L 0 63.8709677419355  L 0 300  L 73 242.903225806452  Z " fill-rule="evenodd" />
    </mask>
  </defs>
  <g transform="matrix(1 0 0 1 -304 -284 )">
    <path d="M 73 242.903225806452  L 73 0  L 0 63.8709677419355  L 0 300  L 73 242.903225806452  Z " fill-rule="nonzero" fill="#f2f2f2" stroke="none" transform="matrix(1 0 0 1 304 284 )" />
    <path d="M 73 242.903225806452  L 73 0  L 0 63.8709677419355  L 0 300  L 73 242.903225806452  Z " stroke-width="2" stroke="#797979" fill="none" transform="matrix(1 0 0 1 304 284 )" mask="url(#clip2)" />
    <path d="M 0 63.8709677419355  L 72.6942133552119 242.190292628739  M 72.6942133552119 0.71293317771306  L 0 300  " stroke-width="1" stroke="#797979" fill="none" transform="matrix(1 0 0 1 304 284 )" mask="url(#clip2)" />
  </g>
</svg>