<?xml version="1.0" encoding="utf-8"?>
<svg version="1.1" xmlns:xlink="http://www.w3.org/1999/xlink" width="40px" height="50px" xmlns="http://www.w3.org/2000/svg">
  <defs>
    <filter x="436px" y="280px" width="40px" height="50px" filterUnits="userSpaceOnUse" id="filter3">
      <feOffset dx="1" dy="1" in="SourceAlpha" result="shadowOffsetInner" />
      <feGaussianBlur stdDeviation="2.5" in="shadowOffsetInner" result="shadowGaussian" />
      <feComposite in2="shadowGaussian" operator="atop" in="SourceAlpha" result="shadowComposite" />
      <feColorMatrix type="matrix" values="0 0 0 0 0  0 0 0 0 0  0 0 0 0 0  0 0 0 0.698039215686274 0  " in="shadowComposite" />
    </filter>
    <g id="widget4">
      <path d="M 455 323.036928468354  C 449.2 313.40734059591  440.5 307.629587872444  440.5 298  C 440.5 292.985714285714  443.4 284.5  455 284.5  C 466.6 284.5  469.5 292.985714285714  469.5 298  C 469.5 307.629587872444  460.8 313.40734059591  455 323.036928468354  Z " fill-rule="nonzero" fill="#009dd9" stroke="none" />
      <path d="M 455 324  C 449 314  440 308  440 298  C 440 292.8  443 284  455 284  C 467 284  470 292.8  470 298  C 470 308  461 314  455 324  Z M 455 322.073856936707  C 460.6 312.81468119182  469 307.259175744887  469 298  C 469 293.171428571429  466.2 285  455 285  C 443.8 285  441 293.171428571429  441 298  C 441 307.259175744887  449.4 312.81468119182  455 322.073856936707  Z " fill-rule="nonzero" fill="#ffffff" stroke="none" />
    </g>
  </defs>
  <g transform="matrix(1 0 0 1 -436 -280 )">
    <use xlink:href="#widget4" filter="url(#filter3)" />
    <use xlink:href="#widget4" />
  </g>
</svg>