<?xml version="1.0" encoding="utf-8"?>
<svg version="1.1" xmlns:xlink="http://www.w3.org/1999/xlink" width="47px" height="47px" xmlns="http://www.w3.org/2000/svg">
  <g transform="matrix(1 0 0 1 -312 -285 )">
    <path d="M 335.5 285  C 348.66 285  359 295.34  359 308.5  C 359 321.66  348.66 332  335.5 332  C 322.34 332  312 321.66  312 308.5  C 312 295.34  322.34 285  335.5 285  Z " fill-rule="nonzero" fill="#ffffff" stroke="none" />
    <path d="M 335.5 285.5  C 348.38 285.5  358.5 295.62  358.5 308.5  C 358.5 321.38  348.38 331.5  335.5 331.5  C 322.62 331.5  312.5 321.38  312.5 308.5  C 312.5 295.62  322.62 285.5  335.5 285.5  Z " stroke-width="1" stroke="#797979" fill="none" />
  </g>
</svg>